<?xml version="1.0" encoding="UTF-8"?>
<svg width="24px" height="24px" viewBox="0 0 24 24" stroke-width="1.5" stroke="currentColor" fill="none" stroke-linecap="round" stroke-linejoin="round" xmlns="http://www.w3.org/2000/svg">
    <path stroke="none" d="M0 0h24v24H0z" fill="none"/>
    <path d="M12 2c2.21 0 4 1.79 4 4v2h2a2 2 0 0 1 2 2v6a2 2 0 0 1 -2 2h-14a2 2 0 0 1 -2 -2v-6a2 2 0 0 1 2 -2h2v-2c0 -2.21 1.79 -4 4 -4z" />
    <path d="M8 9h8" />
    <path d="M8 13h6" />
    <path d="M8 17h4" />
</svg>
